<svg xmlns="http://www.w3.org/2000/svg" version="1.1" xmlns:xlink="http://www.w3.org/1999/xlink" xmlns:svgjs="http://svgjs.dev/svgjs" width="1440" height="560" preserveAspectRatio="none" viewBox="0 0 1440 560"><g mask="url(&quot;#SvgjsMask1002&quot;)" fill="none"><rect width="1440" height="560" x="0" y="0" fill="rgba(32, 41, 46, 1)"></rect><path d="M0 74.12C34.71 27.84 49.98 29.13 105 0C119.98 -7.93 122.5 0 140 0C210 0 210 0 280 0C350 0 350 0 420 0C490 0 490 0 560 0C625.14 0 629.17 -7.11 690.28 0C699.17 1.03 692.06 11.33 700 16.28C766.92 58 783.54 98.25 840 93.33C876.87 90.11 849.72 24.63 886.67 0C919.72 -22.03 933.34 0 980 0C1050 0 1050 0 1120 0C1161.7 0 1166.69 -13.16 1203.4 0C1236.69 11.94 1229.92 50.19 1260 50.19C1296.22 50.19 1294.89 14.74 1336 0C1364.89 -10.36 1368 0 1400 0C1436.13 0 1445.06 -17.74 1472.26 0C1515.06 27.91 1516.29 42.29 1540 91.3C1550.16 112.29 1540 115.65 1540 140C1540 210 1540 210 1540 280C1540 329 1568.53 352.64 1540 378C1498.53 414.86 1470.45 401.21 1400 404.44C1330.45 407.63 1324.8 384.72 1260 390.83C1242.3 392.5 1235 402.68 1235 420C1235 461.02 1246.98 463.91 1260 507.5C1267.88 533.91 1276.8 539.88 1276.8 560C1276.8 566.13 1268.4 560 1260 560C1190 560 1190 560 1120 560C1075.36 560 1069.54 574.06 1030.72 560C999.54 548.7 1011.26 524.98 980 509.28C915.9 477.09 890.48 449.13 840 464.21C805.56 474.49 843.53 537.17 810.16 560C773.53 585.07 755.08 560 700 560C637.78 560 630.93 571.46 575.56 560C560.93 556.97 569.29 544.57 560 531.03C521.26 474.57 507.2 481.26 479.5 420C450.45 355.75 470.13 345.99 446.49 280C440.38 262.93 433.29 253.87 420 253.87C406.62 253.87 406.12 266.49 393.15 280C336.12 339.41 337.16 340.44 280 399.71C269.65 410.44 258.13 407.27 258.13 420C258.13 446.58 264.25 451.8 280 478.33C305.81 521.8 341.25 534.48 341.25 560C341.25 575.31 310.63 560 280 560C210 560 210 560 140 560C70 560 36.77 593.23 0 560C-33.23 529.96 -5.19 494.77 0 433.46C0.74 424.77 9.58 428.55 11.86 420C30.07 351.82 44.3 348.5 40.98 280C38.37 226 15.63 228.41 0 175C-4.86 158.41 0 157.5 0 140C0 107.06 -17.79 97.84 0 74.12" stroke="rgba(196, 119, 11, 1)" stroke-width="2"></path><path d="M840 193.33C817.77 193.33 781.29 236 781.29 280C781.29 327.23 818 375.79 840 375.79C859.33 375.79 863.95 327.75 863.95 280C863.95 236.52 859.1 193.33 840 193.33" stroke="rgba(196, 119, 11, 1)" stroke-width="2"></path><path d="M1436.24 560C1436.24 522.8 1510.57 437.5 1540 437.5C1562.45 437.5 1568.09 526.84 1540 560C1516.21 588.09 1436.24 584.05 1436.24 560" stroke="rgba(196, 119, 11, 1)" stroke-width="2"></path><path d="M38.39 140C52.05 83.27 89.44 93.24 140 45.97C164.31 23.24 158.72 9.66 188.13 0C228.72 -13.33 234.07 0 280 0C342.56 0 345.84 -7.23 405.11 0C415.84 1.31 412.56 17.07 420 17.07C427.44 17.07 424.16 1.31 434.89 0C494.16 -7.23 497.44 0 560 0C600.84 0 612.42 -20.41 641.67 0C682.42 28.43 663.95 55.25 700 97.67C723.45 125.25 760.67 113.1 760.67 140C760.67 179.77 728.07 184.22 700 231C686.07 254.22 693.13 258.67 676.67 280C623.13 349.38 609.73 412.43 560 412.43C518.28 412.43 534.96 340.36 493.78 280C464.96 237.75 457.01 207.2 420 207.2C382.73 207.2 381.87 242.87 345.21 280C311.87 313.77 313.76 315.66 280 348.99C242.87 385.66 232.23 377.57 203.44 420C162.23 480.74 173.07 488.75 140 555.33C138.3 558.75 137.7 559.87 133.91 560C67.7 562.21 46.42 580.53 0 560C-20.53 550.92 -12.63 525.61 0 500.77C22.96 455.61 53.05 467.88 71.19 420C94.88 357.49 91.67 348.4 83.66 280C75.27 208.4 23.88 200.29 38.39 140" stroke="rgba(196, 119, 11, 1)" stroke-width="2"></path><path d="M280 101.38C260.87 101.38 243.28 120.01 243.28 140C243.28 161.72 260.75 184.8 280 184.8C300.65 184.8 323.08 161.6 323.08 140C323.08 119.89 300.77 101.38 280 101.38" stroke="rgba(196, 119, 11, 1)" stroke-width="2"></path><path d="M925 140C937.54 69.16 935.49 61.32 959.58 0C962.99 -8.68 969.79 0 980 0C1050 0 1050 0 1120 0C1124.47 0 1125.54 -2.82 1128.94 0C1195.54 55.29 1189.11 105.93 1260 116.23C1324.64 125.62 1338.98 32.79 1400 39.37C1449.23 44.68 1454.32 83.01 1480.5 140C1509.59 203.32 1532.43 229.22 1510.53 280C1492.18 322.55 1454.83 326.67 1400 326.67C1349.57 326.67 1343.11 311.62 1300 280C1273.11 260.28 1283.89 224 1260 224C1228.89 224 1219.07 246.57 1190 280C1149.07 327.07 1152.13 331.02 1120 385C1110.46 401.02 1122.1 411.89 1106.67 420C1052.1 448.67 1041.32 458.55 980 458.55C942.99 458.55 922.72 452.44 910 420C887.72 363.17 906.26 349.8 910 280C913.76 209.8 912.75 209.16 925 140" stroke="rgba(196, 119, 11, 1)" stroke-width="2"></path><path d="M640.37 560C640.37 537.58 671.26 486.82 700 486.82C727.47 486.82 752.79 536.92 752.79 560C752.79 573.51 726.39 560 700 560C670.18 560 640.37 574.17 640.37 560" stroke="rgba(196, 119, 11, 1)" stroke-width="2"></path><path d="M1081.45 560C1081.45 510.95 1095.08 433.33 1120 433.33C1146.79 433.33 1184.88 516.5 1184.88 560C1184.88 579.83 1152.44 560 1120 560C1100.72 560 1081.45 574.28 1081.45 560" stroke="rgba(196, 119, 11, 1)" stroke-width="2"></path><path d="M1477.41 560C1477.41 537.56 1522.25 486.11 1540 486.11C1553.54 486.11 1556.94 540 1540 560C1525.65 576.94 1477.41 574.5 1477.41 560" stroke="rgba(196, 119, 11, 1)" stroke-width="2"></path><path d="M94.84 140C96.89 112.72 117.34 98.21 140 98.21C162.87 98.21 165.26 116.91 185.9 140C235.26 195.21 233.82 196.75 280 254.8C289.5 266.75 297.26 268.08 297.26 280C297.26 289.81 289.14 289.64 280 298.26C214.88 359.64 211.52 357.05 148.75 420C141.52 427.25 144.52 438.67 140 438.67C135.4 438.67 131.4 430.32 130.51 420C124.57 350.98 135.15 349.15 126.34 280C117.31 209.15 90.06 203.62 94.84 140" stroke="rgba(196, 119, 11, 1)" stroke-width="2"></path><path d="M280 41.03C259.83 41.03 242.81 12.27 242.81 0C242.81 -8.24 261.4 0 280 0C305.32 0 330.64 -8.97 330.64 0C330.64 11.54 303.74 41.03 280 41.03" stroke="rgba(196, 119, 11, 1)" stroke-width="2"></path><path d="M390.38 140C390.38 123.44 403.34 102.44 420 102.44C440.15 102.44 464 124.21 464 140C464 153.25 441.13 160.53 420 160.53C404.32 160.53 390.38 152.48 390.38 140" stroke="rgba(196, 119, 11, 1)" stroke-width="2"></path><path d="M560 58.05C537.59 58.05 509.36 17.51 509.36 0C509.36 -11.51 534.68 0 560 0C576.53 0 593.06 -9.61 593.06 0C593.06 19.42 579.44 58.05 560 58.05" stroke="rgba(196, 119, 11, 1)" stroke-width="2"></path><path d="M541.08 280C541.08 259.57 547.96 238.82 560 238.82C574.08 238.82 593.33 259.76 593.33 280C593.33 299.27 574.21 317.84 560 317.84C548.08 317.84 541.08 299.08 541.08 280" stroke="rgba(196, 119, 11, 1)" stroke-width="2"></path><path d="M956.05 280C956.05 245.72 961.9 212.59 980 212.59C1002.32 212.59 1036.88 243.94 1036.88 280C1036.88 325.54 1001.43 375.79 980 375.79C961.01 375.79 956.05 327.32 956.05 280" stroke="rgba(196, 119, 11, 1)" stroke-width="2"></path><path d="M1518.59 560C1518.59 552.32 1533.93 534.72 1540 534.72C1544.63 534.72 1545.8 553.16 1540 560C1535.09 565.8 1518.59 564.96 1518.59 560" stroke="rgba(196, 119, 11, 1)" stroke-width="2"></path></g><defs><mask id="SvgjsMask1002"><rect width="1440" height="560" fill="#ffffff"></rect></mask></defs></svg>